<svg width="68" height="64" viewBox="0 0 68 64" fill="none" xmlns="http://www.w3.org/2000/svg">
<g id="bar-chart-svgrepo-com 1" clip-path="url(#clip0_6_237)">
<g id="Group">
<g id="Group_2">
<g id="Group_3">
<path id="Vector" d="M11.2433 12.0417L32.5702 23.5809C32.7926 23.7012 33.0366 23.7595 33.2783 23.7595C33.6848 23.7595 34.0851 23.595 34.3665 23.2846L51.3553 4.54486L51.8682 7.77697C51.9763 8.45875 52.5899 8.94736 53.2896 8.94736C53.3614 8.94736 53.4343 8.94213 53.5074 8.93153C54.2933 8.8174 54.8338 8.11552 54.7145 7.3638L53.7315 1.17013C53.6714 0.79055 53.4482 0.452415 53.116 0.237088C52.7838 0.021761 52.3726 -0.0512078 51.9819 0.0359418L45.6184 1.45402C44.8442 1.62652 44.3628 2.36668 44.5432 3.10724C44.7235 3.84781 45.4969 4.3082 46.2716 4.13569L48.3323 3.67654L32.9628 20.6298L12.6607 9.64497C11.9686 9.27035 11.0903 9.50358 10.6992 10.1654C10.3077 10.8272 10.5514 11.6672 11.2433 12.0417Z" fill="#3182CE"/>
<path id="Vector_2" d="M6.29696 57.8197H20.8355C21.6305 57.8197 22.275 57.2033 22.275 56.4429V26.5713C22.275 25.8109 21.6305 25.1945 20.8355 25.1945H6.29696C5.50196 25.1945 4.85753 25.8109 4.85753 26.5713V56.4429C4.85753 57.2033 5.50196 57.8197 6.29696 57.8197ZM7.7364 27.948H19.3961V55.0661H7.7364V27.948Z" fill="#3182CE"/>
<path id="Vector_3" d="M45.7812 15.7556V56.4429C45.7812 57.2033 46.4257 57.8197 47.2207 57.8197H60.6824C61.4774 57.8197 62.1219 57.2033 62.1219 56.4429V15.7556C62.1219 14.9953 61.4774 14.3789 60.6824 14.3789H47.2207C46.4258 14.3789 45.7812 14.9953 45.7812 15.7556ZM48.6601 17.1324H59.243V55.0662H48.6601V17.1324Z" fill="#3182CE"/>
<path id="Vector_4" d="M27.2973 38.0702C26.5023 38.0702 25.8579 38.6866 25.8579 39.447V56.4429C25.8579 57.2033 26.5023 57.8197 27.2973 57.8197H40.7591C41.5541 57.8197 42.1985 57.2033 42.1985 56.4429V39.447C42.1985 38.6866 41.5541 38.0702 40.7591 38.0702H27.2973ZM39.3196 55.0661H28.7367V40.8237H39.3196V55.0661Z" fill="#3182CE"/>
<path id="Vector_5" d="M62.8364 61.2465H5.21998C4.42498 61.2465 3.78055 61.8628 3.78055 62.6232C3.78055 63.3836 4.42498 64 5.21998 64H62.8364C63.6314 64 64.2758 63.3836 64.2758 62.6232C64.2758 61.8628 63.6314 61.2465 62.8364 61.2465Z" fill="#3182CE"/>
</g>
</g>
</g>
</g>
<defs>
<clipPath id="clip0_6_237">
<rect width="66.913" height="64" fill="white" transform="translate(0.571625)"/>
</clipPath>
</defs>
</svg>
