<svg width="68" height="64" viewBox="0 0 68 64" fill="none" xmlns="http://www.w3.org/2000/svg">
<g id="bulb-svgrepo-com 1" clip-path="url(#clip0_8_282)">
<path id="bulb" d="M21.265 60.6656C21.2659 61.5492 21.6332 62.3965 22.2863 63.0216C22.9394 63.6467 23.8249 63.9985 24.7488 64H43.3098C44.2335 63.9982 45.1188 63.6462 45.7716 63.0212C46.4244 62.3962 46.7916 61.5491 46.7925 60.6656V49.7959H21.265V60.6656ZM24.2652 52.6644H43.7934V55.3807H24.2652V52.6644ZM24.2652 58.2505H43.7934V60.6656C43.7901 60.7872 43.7381 60.9031 43.6481 60.9891C43.5581 61.0752 43.437 61.1249 43.3098 61.1281H24.7441C24.6169 61.1249 24.4958 61.0752 24.4058 60.9891C24.3158 60.9031 24.2638 60.7872 24.2606 60.6656L24.2652 58.2505ZM34.0293 2.3553e-05C29.7562 -0.00391647 25.5652 1.12282 21.92 3.25559C18.2747 5.38836 15.3174 8.44404 13.3751 12.0846C11.4328 15.7251 10.5813 19.8085 10.9147 23.8832C11.2481 27.9578 12.7535 31.8649 15.2643 35.1721L16.5298 36.7581C16.5298 36.7581 17.7092 37.9391 18.8815 39.3695C19.8341 40.3759 20.5595 41.5594 21.0125 42.846V47.7733H47.0201V42.846C47.4757 41.5608 48.2005 40.3778 49.1501 39.3695C50.3212 37.9391 51.5088 36.7626 51.5088 36.7581L52.7542 35.2251C55.2783 31.9202 56.7962 28.0112 57.1394 23.9316C57.4826 19.852 56.6377 15.7612 54.6985 12.1129C52.7593 8.46452 49.8015 5.40116 46.1531 3.2625C42.5048 1.12383 38.3084 -0.0065694 34.0293 -0.00335008V2.3553e-05ZM49.2668 34.8133L48.735 35.3965C48.2502 35.912 47.5249 36.7039 46.7925 37.6007C45.5341 39.2352 44.1389 40.8539 44.021 42.846C44.021 43.6627 44.021 44.3565 44.021 44.9047H35.5295V30.9273C37.0587 30.5761 38.4001 29.7004 39.2993 28.4663C40.1985 27.2322 40.5931 25.7254 40.4082 24.2316C40.2233 22.7378 39.4719 21.3608 38.2963 20.3616C37.1207 19.3624 35.6026 18.8105 34.0299 18.8105C32.4572 18.8105 30.9392 19.3624 29.7635 20.3616C28.5879 21.3608 27.8364 22.7378 27.6516 24.2316C27.4667 25.7254 27.8613 27.2322 28.7605 28.4663C29.6598 29.7004 31.0011 30.5761 32.5304 30.9273V44.9047H24.0129V42.846C23.8949 40.8539 22.4986 39.2364 21.2425 37.6007C20.8545 37.1269 20.4689 36.6825 20.1198 36.2888H20.128L18.7882 34.8111C16.2495 32.0154 14.6049 28.5803 14.0505 24.9154C13.4962 21.2506 14.0555 17.5105 15.6617 14.1413C17.268 10.772 19.8534 7.91559 23.1098 5.91267C26.3661 3.90975 30.156 2.8448 34.0275 2.8448C37.8991 2.8448 41.689 3.90975 44.9453 5.91267C48.2017 7.91559 50.7871 10.772 52.3934 14.1413C53.9996 17.5105 54.5589 21.2506 54.0046 24.9154C53.4502 28.5803 51.8056 32.0154 49.2668 34.8111V34.8133ZM34.0305 28.2437C33.354 28.2437 32.6928 28.0518 32.1304 27.6924C31.5679 27.3329 31.1295 26.822 30.8706 26.2243C30.6118 25.6265 30.544 24.9688 30.676 24.3342C30.808 23.6996 31.1338 23.1167 31.6121 22.6592C32.0904 22.2017 32.6998 21.8902 33.3633 21.764C34.0267 21.6377 34.7144 21.7025 35.3394 21.9501C35.9643 22.1977 36.4985 22.617 36.8743 23.155C37.2501 23.6929 37.4507 24.3254 37.4507 24.9724C37.4507 25.402 37.3622 25.8274 37.1903 26.2243C37.0185 26.6212 36.7665 26.9818 36.4489 27.2855C36.1313 27.5893 35.7543 27.8303 35.3394 27.9947C34.9244 28.1591 34.4796 28.2437 34.0305 28.2437V28.2437Z" fill="#3182CE"/>
</g>
<defs>
<clipPath id="clip0_8_282">
<rect width="66.913" height="64" fill="white" transform="translate(0.571625)"/>
</clipPath>
</defs>
</svg>
