<svg width="68" height="64" viewBox="0 0 68 64" fill="none" xmlns="http://www.w3.org/2000/svg">
<g id="lightning-svgrepo-com 1">
<g id="Group">
<g id="Group_2">
<path id="Vector" d="M52.5995 0.581089C52.3839 0.22161 51.9839 0 51.5506 0H26.6232C26.1044 0 25.6432 0.316607 25.4773 0.786815L14.7941 31.0625C14.6697 31.4155 14.7306 31.8043 14.9576 32.1069C15.1848 32.4094 15.5505 32.589 15.94 32.589H26.0676L14.4115 62.4387C14.2055 62.9664 14.427 63.5596 14.9362 63.843C15.1264 63.9488 15.336 64 15.5439 64C15.8922 64 16.2351 63.8563 16.472 63.5856L48.9172 26.498C49.2185 26.1535 49.2841 25.6733 49.0853 25.2663C48.8867 24.8593 48.4594 24.5991 47.9897 24.5991H38.6229L52.5946 1.74049C52.8133 1.38271 52.8152 0.940569 52.5995 0.581089ZM35.4709 25.1717C35.2523 25.5295 35.2503 25.9717 35.4661 26.3311C35.6816 26.6906 36.0817 26.9122 36.5149 26.9122H45.4008L19.1473 56.9225L28.9431 31.837C29.0817 31.482 29.0297 31.0844 28.8036 30.7729C28.5777 30.4615 28.2066 30.2757 27.8102 30.2757H17.6245L27.4913 2.31325H49.4428L35.4709 25.1717Z" fill="#3182CE"/>
</g>
</g>
</g>
</svg>
