<svg width="50" height="50" viewBox="0 0 50 50" fill="none" xmlns="http://www.w3.org/2000/svg">
<path d="M47.3 16.05L40.85 9.54999C40.45 9.14999 39.9 8.94999 39.35 8.99999L30.1 9.74999C22.2 3.04999 12.25 0.449986 4.05 3.19999L3.4 3.39999L3.2 4.04999C0.450001 12.25 3.05 22.2 9.8 30.1L9 39.35C8.95 39.9 9.15 40.45 9.55 40.85L16 47.3C16.35 47.65 16.85 47.85 17.35 47.85C17.55 47.85 17.75 47.8 18 47.75C18.7 47.5 19.2 46.9 19.3 46.15L20.25 38.35C21.9 39.2 23.6 39.9 25.35 40.45L25.55 40.5C25.9 40.6 26.3 40.5 26.55 40.25L40.3 26.5C40.55 26.25 40.65 25.85 40.55 25.5L40.5 25.35C39.95 23.6 39.25 21.9 38.4 20.25L46.2 19.3C46.95 19.2 47.55 18.7 47.8 18C48 17.3 47.85 16.55 47.3 16.05ZM16.75 44.15L11.75 39.15L12.3 32.75C13.95 34.35 15.75 35.7 17.6 36.9L16.75 44.15ZM25.35 37.6C21.1 36.15 17.05 33.6 13.6 30.2C6.5 23.1 3.35 13.3 5.6 5.59999C13.3 3.34999 23.1 6.49999 30.2 13.6C33.65 17.05 36.2 21.1 37.6 25.35L25.35 37.6ZM36.95 17.65C35.75 15.8 34.35 14 32.8 12.35L39.2 11.8L44.2 16.8L36.95 17.65Z" fill="#3182CE"/>
<path d="M17.05 17.05C15.2 18.9 15.2 21.9 17.05 23.8C18 24.75 19.2 25.2 20.4 25.2C21.6 25.2 22.85 24.75 23.75 23.8C25.6 21.95 25.6 18.95 23.75 17.05C21.9 15.2 18.9 15.2 17.05 17.05V17.05ZM21.8 21.8C21 22.6 19.75 22.6 18.95 21.8C18.15 21 18.15 19.75 18.95 18.95C19.35 18.55 19.85 18.35 20.35 18.35C20.85 18.35 21.4 18.55 21.75 18.95C22.6 19.75 22.6 21.05 21.8 21.8V21.8Z" fill="#3182CE"/>
<path d="M43 29.65C42.45 29.1 41.6 29.1 41.05 29.65L29.55 41.15C29 41.7 29 42.55 29.55 43.1C29.65 43.2 29.8 43.3 29.9 43.35C34.5 46.4 40.1 47.2 44.5 45.35C44.65 45.3 44.8 45.2 44.95 45.05C45.1 44.9 45.2 44.75 45.25 44.6C47.1 40.2 46.3 34.6 43.25 30C43.2 29.85 43.1 29.75 43 29.65ZM42.9 43C39.8 44.05 36.1 43.65 32.75 41.85L41.75 32.85C43.55 36.2 43.95 39.9 42.9 43Z" fill="#3182CE"/>
</svg>
