<svg width="36" height="36" viewBox="0 0 36 36" fill="none" xmlns="http://www.w3.org/2000/svg">
<g id="mail_FILL0_wght400_GRAD0_opsz48 1">
<path id="Vector" d="M5.25 30C4.65 30 4.125 29.775 3.675 29.325C3.225 28.875 3 28.35 3 27.75V8.25C3 7.65 3.225 7.125 3.675 6.675C4.125 6.225 4.65 6 5.25 6H30.75C31.35 6 31.875 6.225 32.325 6.675C32.775 7.125 33 7.65 33 8.25V27.75C33 28.35 32.775 28.875 32.325 29.325C31.875 29.775 31.35 30 30.75 30H5.25ZM30.75 10.3125L18.6 18.2625C18.5 18.3125 18.4062 18.3562 18.3187 18.3937C18.2312 18.4312 18.125 18.45 18 18.45C17.875 18.45 17.7688 18.4312 17.6813 18.3937C17.5938 18.3562 17.5 18.3125 17.4 18.2625L5.25 10.3125V27.75H30.75V10.3125ZM18 16.425L30.6 8.25H5.4375L18 16.425ZM5.25 10.3125V10.575V9.09375V9.1125V8.25V9.1125V9.075V10.575V10.3125V27.75V10.3125Z" fill="#3182CE"/>
</g>
</svg>
