<svg width="67" height="64" viewBox="0 0 67 64" fill="none" xmlns="http://www.w3.org/2000/svg">
<path d="M22.7605 4.99963H15.1349C14.3987 4.99963 13.802 5.57038 13.802 6.27451V13.5681C13.802 14.2723 14.3987 14.843 15.1349 14.843H22.7605C23.4967 14.843 24.0934 14.2723 24.0934 13.5681V6.27451C24.0934 5.57038 23.4967 4.99963 22.7605 4.99963ZM21.4275 12.2933H16.4678V7.54951H21.4275V12.2933Z" fill="#3182CE"/>
<path d="M36.4125 4.99963H28.7869C28.0508 4.99963 27.454 5.57038 27.454 6.27451V13.5681C27.454 14.2723 28.0508 14.843 28.7869 14.843H36.4125C37.1487 14.843 37.7454 14.2723 37.7454 13.5681V6.27451C37.7454 5.57038 37.1487 4.99963 36.4125 4.99963ZM35.0796 12.2933H30.12V7.54951H35.0796V12.2933Z" fill="#3182CE"/>
<path d="M22.7605 17.9398H15.1349C14.3987 17.9398 13.802 18.5105 13.802 19.2146V26.5083C13.802 27.2124 14.3987 27.7831 15.1349 27.7831H22.7605C23.4967 27.7831 24.0934 27.2124 24.0934 26.5083V19.2146C24.0934 18.5105 23.4967 17.9398 22.7605 17.9398ZM21.4275 25.2334H16.4678V20.4896H21.4275V25.2334Z" fill="#3182CE"/>
<path d="M36.4125 17.9398H28.7869C28.0508 17.9398 27.454 18.5105 27.454 19.2146V26.5083C27.454 27.2124 28.0508 27.7831 28.7869 27.7831H36.4125C37.1487 27.7831 37.7454 27.2124 37.7454 26.5083V19.2146C37.7454 18.5105 37.1487 17.9398 36.4125 17.9398ZM35.0796 25.2334H30.12V20.4896H35.0796V25.2334Z" fill="#3182CE"/>
<path d="M22.7604 30.8801H15.1348C14.3986 30.8801 13.8019 31.4509 13.8019 32.155V39.4485C13.8019 40.1526 14.3986 40.7234 15.1348 40.7234H22.7604C23.4966 40.7234 24.0933 40.1526 24.0933 39.4485V32.155C24.0933 31.4509 23.4966 30.8801 22.7604 30.8801ZM21.4275 38.1735H16.4678V33.4299H21.4275V38.1735Z" fill="#3182CE"/>
<path d="M36.4125 30.8801H28.7869C28.0508 30.8801 27.454 31.4509 27.454 32.155V39.4485C27.454 40.1526 28.0508 40.7234 28.7869 40.7234H36.4125C37.1487 40.7234 37.7454 40.1526 37.7454 39.4485V32.155C37.7454 31.4509 37.1487 30.8801 36.4125 30.8801ZM35.0796 38.1735H30.12V33.4299H35.0796V38.1735Z" fill="#3182CE"/>
<path d="M25.7736 48.1727C25.0375 48.1727 24.4407 48.7435 24.4407 49.4476V49.5652C24.4407 50.2694 25.0375 50.8401 25.7736 50.8401C26.5098 50.8401 27.1065 50.2694 27.1065 49.5652V49.4476C27.1065 48.7436 26.5098 48.1727 25.7736 48.1727Z" fill="#3182CE"/>
<path d="M58.1324 61.8236L51.4375 55.4201C52.4666 54.0137 53.0726 52.3046 53.0726 50.4616C53.0726 45.6805 49.0058 41.7907 44.0071 41.7907C43.7203 41.7907 43.4371 41.805 43.157 41.8301V1.27488C43.1572 0.57075 42.5604 0 41.8243 0H9.72316C8.98699 0 8.39026 0.57075 8.39026 1.27488V57.8589C8.39026 58.563 8.98699 59.1338 9.72316 59.1338H44.2531C44.3103 59.1338 44.3661 59.1291 44.4213 59.1225C46.3729 59.0381 48.1643 58.36 49.6057 57.2739L56.2473 63.6265C56.5076 63.8755 56.8487 63.9999 57.1898 63.9999C57.5309 63.9999 57.8721 63.8754 58.1324 63.6265C58.6529 63.1287 58.6529 62.3215 58.1324 61.8236ZM30.7133 56.584H27.1066V53.0945C27.1066 52.3904 26.5098 51.8196 25.7737 51.8196C25.0375 51.8196 24.4408 52.3904 24.4408 53.0945V56.584H20.834V46.9582H30.7133V56.584V56.584ZM33.3793 56.5839V45.6833C33.3793 44.9791 32.7825 44.4084 32.0464 44.4084H19.5011C18.7649 44.4084 18.1682 44.9791 18.1682 45.6833V56.5839H11.0561V2.54975H40.4912V42.4699C37.2337 43.7859 34.9418 46.8725 34.9418 50.4618C34.9418 52.8493 35.9561 55.0144 37.5939 56.584H33.3793V56.5839ZM44.0072 56.5827C40.4784 56.5827 37.6076 53.8369 37.6076 50.4618C37.6076 47.0866 40.4784 44.3408 44.0072 44.3408C47.5359 44.3408 50.4068 47.0866 50.4068 50.4618C50.4068 53.8369 47.5359 56.5827 44.0072 56.5827Z" fill="#3182CE"/>
</svg>
