<svg width="40" height="40" viewBox="0 0 40 40" fill="none" xmlns="http://www.w3.org/2000/svg">
<g id="cib:instagram" clip-path="url(#clip0_26_172)">
<path id="Vector" d="M20 0C14.5638 0 13.8863 0.02625 11.7588 0.11625C9.6225 0.22125 8.1775 0.5525 6.9025 1.0475C5.56808 1.55128 4.35958 2.34002 3.36125 3.35875C2.33968 4.35475 1.5505 5.56392 1.05 6.9C0.555002 8.175 0.223752 9.62 0.118752 11.7562C0.0225024 13.885 0.00250244 14.5613 0.00250244 19.9975C0.00250244 25.4338 0.0287524 26.1112 0.118752 28.2388C0.223752 30.3687 0.555002 31.82 1.05 33.095C1.55378 34.4294 2.34252 35.6379 3.36125 36.6362C4.35725 37.6578 5.56642 38.447 6.9025 38.9475C8.1775 39.4363 9.62875 39.7738 11.7588 39.8787C13.8875 39.975 14.5638 39.995 20 39.995C25.4363 39.995 26.1138 39.9688 28.2413 39.8787C30.3713 39.7738 31.8225 39.435 33.0975 38.9475C34.4319 38.4437 35.6404 37.655 36.6388 36.6362C37.6616 35.6413 38.451 34.4319 38.95 33.095C39.4388 31.82 39.7763 30.3687 39.8813 28.2388C39.9775 26.11 39.9975 25.4338 39.9975 19.9975C39.9975 14.5613 39.9713 13.8837 39.8813 11.7562C39.7763 9.62625 39.4375 8.1675 38.95 6.9C38.4462 5.56558 37.6575 4.35708 36.6388 3.35875C35.6438 2.33586 34.4344 1.54647 33.0975 1.0475C31.8225 0.5525 30.3713 0.22125 28.2413 0.11625C26.1125 0.02 25.4363 0 20 0ZM20 3.6C25.3388 3.6 25.9763 3.62625 28.0863 3.71625C30.0325 3.8075 31.0925 4.1325 31.7963 4.4075C32.6663 4.72865 33.4537 5.23981 34.1012 5.90375C34.7641 6.54853 35.2733 7.33418 35.5913 8.2025C35.8662 8.90625 36.1912 9.96625 36.2825 11.9125C36.3725 14.0225 36.3988 14.6612 36.3988 19.9987C36.3988 25.3363 36.3725 25.975 36.275 28.085C36.17 30.0312 35.845 31.0913 35.5713 31.795C35.1925 32.7337 34.77 33.39 34.0725 34.1C33.4228 34.7598 32.6359 35.2685 31.7675 35.59C31.0725 35.865 29.9975 36.19 28.0438 36.2812C25.9225 36.3713 25.2975 36.3975 19.945 36.3975C14.5925 36.3975 13.9688 36.3713 11.845 36.2738C9.89875 36.1688 8.825 35.8438 8.12125 35.57C7.17125 35.1912 6.52 34.7687 5.8225 34.0713C5.11875 33.3675 4.67125 32.6975 4.32625 31.7663C4.04625 31.0713 3.72625 29.9963 3.6225 28.0425C3.55125 25.9463 3.5175 25.2963 3.5175 19.9688C3.5175 14.6438 3.55125 13.9925 3.6225 11.87C3.72625 9.91625 4.04625 8.84375 4.32625 8.14625C4.67125 7.195 5.12 6.545 5.8225 5.84125C6.51875 5.145 7.17125 4.695 8.12125 4.3425C8.825 4.06875 9.8725 3.74375 11.8263 3.64625C13.9475 3.57 14.5725 3.5425 19.9175 3.5425L20 3.6ZM20 9.73375C18.6517 9.73326 17.3165 9.99846 16.0707 10.5142C14.8249 11.03 13.693 11.7862 12.7396 12.7396C11.7862 13.693 11.03 14.8249 10.5142 16.0707C9.99847 17.3165 9.73326 18.6517 9.73375 20C9.73326 21.3483 9.99847 22.6835 10.5142 23.9293C11.03 25.1751 11.7862 26.307 12.7396 27.2604C13.693 28.2138 14.8249 28.97 16.0707 29.4858C17.3165 30.0015 18.6517 30.2667 20 30.2662C21.3483 30.2667 22.6835 30.0015 23.9293 29.4858C25.1751 28.97 26.307 28.2138 27.2604 27.2604C28.2138 26.307 28.97 25.1751 29.4858 23.9293C30.0015 22.6835 30.2667 21.3483 30.2663 20C30.2667 18.6517 30.0015 17.3165 29.4858 16.0707C28.97 14.8249 28.2138 13.693 27.2604 12.7396C26.307 11.7862 25.1751 11.03 23.9293 10.5142C22.6835 9.99846 21.3483 9.73326 20 9.73375ZM20 26.6663C16.315 26.6663 13.3338 23.685 13.3338 20C13.3338 16.315 16.315 13.3337 20 13.3337C23.685 13.3337 26.6663 16.315 26.6663 20C26.6663 23.685 23.685 26.6663 20 26.6663ZM33.08 9.32375C33.0793 9.96083 32.8258 10.5716 32.3751 11.0218C31.9244 11.4721 31.3133 11.725 30.6763 11.725C30.3612 11.725 30.0493 11.663 29.7583 11.5424C29.4673 11.4219 29.2028 11.2452 28.9801 11.0224C28.7573 10.7997 28.5806 10.5352 28.4601 10.2442C28.3395 9.95318 28.2775 9.64126 28.2775 9.32625C28.2775 9.01124 28.3395 8.69932 28.4601 8.40829C28.5806 8.11726 28.7573 7.85282 28.9801 7.63008C29.2028 7.40733 29.4673 7.23064 29.7583 7.11009C30.0493 6.98955 30.3612 6.9275 30.6763 6.9275C31.9975 6.9275 33.08 8.0025 33.08 9.32375Z" fill="black"/>
</g>
<defs>
<clipPath id="clip0_26_172">
<rect width="40" height="40" fill="white"/>
</clipPath>
</defs>
</svg>
